HIERARCHY
ROOT Hips
{
	OFFSET 305.588898 92.559578 -272.186401
	CHANNELS 6 Xposition Yposition Zposition Zrotation Yrotation Xrotation 
	JOINT LeftUpLeg
	{
		OFFSET 0.103462 1.857825 10.548491
		CHANNELS 3 Zrotation Yrotation Xrotation
		JOINT LeftLeg
		{
			OFFSET 43.500000 -0.000038 -0.000006
			CHANNELS 3 Zrotation Yrotation Xrotation
			JOINT LeftFoot
			{
				OFFSET 42.372196 0.000034 -0.000012
				CHANNELS 3 Zrotation Yrotation Xrotation
				JOINT LeftToe
				{
					OFFSET 17.299999 -0.000001 -0.000008
					CHANNELS 3 Zrotation Yrotation Xrotation
					End Site
					{
						OFFSET 0.000000 0.000000 0.000000
					}
				}
			}
		}
	}
	JOINT RightUpLeg
	{
		OFFSET 0.103456 1.857821 -10.548490
		CHANNELS 3 Zrotation Yrotation Xrotation
		JOINT RightLeg
		{
			OFFSET 43.500038 -0.000011 0.000011
			CHANNELS 3 Zrotation Yrotation Xrotation
			JOINT RightFoot
			{
				OFFSET 42.372265 0.000004 0.000029
				CHANNELS 3 Zrotation Yrotation Xrotation
				JOINT RightToe
				{
					OFFSET 17.299988 -0.000007 0.000004
					CHANNELS 3 Zrotation Yrotation Xrotation
					End Site
					{
						OFFSET 0.000000 0.000000 0.000000
					}
				}
			}
		}
	}
	JOINT Spine
	{
		OFFSET 6.901963 -2.603729 -0.000012
		CHANNELS 3 Zrotation Yrotation Xrotation
		JOINT Spine1
		{
			OFFSET 12.588106 0.000010 0.000003
			CHANNELS 3 Zrotation Yrotation Xrotation
			JOINT Spine2
			{
				OFFSET 12.343199 -0.000001 -0.000002
				CHANNELS 3 Zrotation Yrotation Xrotation
				JOINT Neck
				{
					OFFSET 25.832895 -0.000006 0.000023
					CHANNELS 3 Zrotation Yrotation Xrotation
					JOINT Head
					{
						OFFSET 11.766605 0.000011 -0.000027
						CHANNELS 3 Zrotation Yrotation Xrotation
						End Site
						{
							OFFSET 0.000000 0.000000 0.000000
						}
					}
				}
				JOINT LeftShoulder
				{
					OFFSET 19.745903 -1.480368 6.000127
					CHANNELS 3 Zrotation Yrotation Xrotation
					JOINT LeftArm
					{
						OFFSET 11.284108 0.000010 -0.000010
						CHANNELS 3 Zrotation Yrotation Xrotation
						JOINT LeftForeArm
						{
							OFFSET 33.000069 0.000000 0.000030
							CHANNELS 3 Zrotation Yrotation Xrotation
							JOINT LeftHand
							{
								OFFSET 25.199997 0.000019 0.000001
								CHANNELS 3 Zrotation Yrotation Xrotation
								End Site
								{
									OFFSET 0.000000 0.000000 0.000000
								}
							}
						}
					}
				}
				JOINT RightShoulder
				{
					OFFSET 19.746101 -1.480371 -6.000072
					CHANNELS 3 Zrotation Yrotation Xrotation
					JOINT RightArm
					{
						OFFSET 11.284140 -0.000007 -0.000004
						CHANNELS 3 Zrotation Yrotation Xrotation
						JOINT RightForeArm
						{
							OFFSET 33.000080 0.000016 -0.000002
							CHANNELS 3 Zrotation Yrotation Xrotation
							JOINT RightHand
							{
								OFFSET 25.199766 0.000146 0.000422
								CHANNELS 3 Zrotation Yrotation Xrotation
								End Site
								{
									OFFSET 0.000000 0.000000 0.000000
								}
							}
						}
					}
				}
			}
		}
	}
}
MOTION
Frames: 12
Frame Time: 0.033333
233.977905 102.897598 -242.438599 88.894837 -1.741991 -40.159091 168.826772 2.018494 -179.549008 -63.807730 -1.577800 -0.349725 55.578667 -2.359143 -5.441389 21.454550 0.003089 0.000001 169.781537 -0.178998 178.553070 -60.664757 -1.782930 0.045593 64.607716 0.102951 0.205021 21.454560 -0.003109 -0.000016 7.291388 0.212505 0.337178 4.571192 0.411600 0.682414 4.253090 0.415851 0.679925 11.101536 -5.912800 -3.816591 -15.128703 12.086377 -8.641022 -171.172395 -76.479636 -10.515274 -16.422056 52.438583 -7.775204 -110.983102 -1.227207 3.316046 -5.917964 -11.619689 51.806503 -167.062493 74.767649 14.677636 6.516375 -47.243640 -0.156107 -111.021098 -2.062464 -3.137931 -13.943672 9.946644 -17.599644 
229.891998 104.846298 -245.380295 88.799303 -2.168338 -40.946380 166.035601 0.406794 177.655857 -63.225190 -0.769622 -2.882353 55.641764 -1.371387 -7.307315 21.454550 0.003091 -0.000001 167.467591 -0.015792 179.633606 -58.052715 -1.501326 2.034212 66.432483 -0.384516 2.801828 21.454557 -0.003108 -0.000020 7.927026 0.130346 0.397234 5.842079 0.240508 0.800501 5.524007 0.245475 0.799036 12.358455 -4.652419 -3.528419 -16.306727 10.835305 -7.893934 -168.416031 -76.879373 -13.329907 -13.362805 53.431026 -7.856346 -107.557803 -1.606366 3.194456 -6.057735 -11.695643 56.128999 -164.886791 75.431414 16.900719 7.660394 -46.806067 0.418791 -111.075501 -2.131049 -3.135546 -13.339321 8.911389 -18.603726 
225.751602 106.011597 -248.389603 89.472241 -1.903347 -41.805986 163.493022 -1.532001 175.701712 -58.705073 -1.017062 -4.724851 59.455554 0.357059 -7.158454 21.454562 0.003096 0.000001 165.148100 0.049808 -178.351129 -52.024656 -1.477220 2.944392 70.217008 -1.021530 3.160016 21.454558 -0.003106 -0.000018 8.325663 0.123260 0.464892 6.639366 0.219691 0.936062 6.321324 0.225475 0.934720 13.077881 -4.686892 -3.100341 -17.504436 10.265645 -7.343265 -163.169709 -77.382956 -18.679428 -9.766216 55.702573 -7.756981 -104.693406 -2.058080 3.100727 -3.599199 -9.663531 57.877404 -162.480406 75.920701 19.356690 10.344573 -45.408095 -0.012141 -111.142894 -2.135126 -3.138180 -11.052379 7.409424 -21.035181 
221.687393 106.085098 -251.285797 91.230495 -0.838024 -42.475850 159.772031 -2.850801 174.243494 -52.620081 -0.462338 -5.389575 64.513746 1.410685 -6.519525 21.454553 0.003092 0.000001 161.657587 0.065901 -176.024343 -45.233464 -0.918799 2.851578 73.800481 -0.875776 3.797703 21.454562 -0.003110 -0.000018 8.435385 0.093514 0.561395 6.858680 0.153650 1.127315 6.540659 0.160579 1.126365 13.830079 -4.554094 -2.605323 -19.908598 10.273551 -7.045805 -163.653505 -76.710128 -18.191932 -3.575826 55.491076 -5.532868 -102.231198 -2.345872 3.012351 -1.904217 -9.288209 58.488829 -159.853092 75.708501 22.044603 13.998801 -43.451102 -1.252558 -110.115804 -1.981352 -3.104261 -9.285883 6.851289 -22.800020 
217.561203 105.287201 -254.218994 92.831457 0.556574 -43.056355 156.734455 -3.381190 174.200573 -44.563774 -0.341639 -5.234142 67.501407 1.548220 -6.284636 21.454545 0.003089 0.000000 158.249882 0.085806 -175.249404 -38.402681 0.369878 2.261400 76.718379 -0.197090 5.244929 21.454560 -0.003111 -0.000018 8.586962 -0.025200 0.612736 7.160588 -0.088218 1.222731 6.842584 -0.080700 1.223248 12.886654 -4.654839 -2.295245 -21.764710 10.213482 -6.934906 -160.384398 -76.713427 -21.528893 2.442700 55.440106 -2.077775 -100.343907 -2.582922 2.945382 -1.984493 -9.284285 57.333387 -156.392344 75.990745 25.575927 18.157650 -42.299997 -3.398640 -108.180791 -1.538636 -3.050459 -9.106023 7.262919 -23.792395 
213.364197 103.434196 -257.266998 93.805559 1.707253 -43.485185 154.780201 -3.542503 174.940092 -35.940992 -0.312422 -4.360726 67.048887 0.661913 -6.926997 21.454550 0.003091 0.000000 155.667483 -0.183304 -175.045468 -32.031405 1.085686 0.999723 79.978640 0.440838 4.913114 21.454555 -0.003115 -0.000018 8.865415 -0.204663 0.633537 7.715562 -0.451073 1.252029 7.397537 -0.443372 1.254739 11.382023 -4.633056 -1.939026 -22.461547 10.592490 -6.850290 -158.967394 -76.598038 -22.976900 9.659438 54.132381 2.376106 -99.718959 -2.439711 2.907674 -1.880680 -9.000538 55.324713 -155.496374 75.669016 26.498014 22.960359 -40.747816 -5.607617 -106.227897 -1.126355 -2.993208 -8.156668 7.170214 -26.522468 
209.127502 100.396500 -260.469788 94.490879 2.277911 -43.582430 153.004010 -4.030901 177.654641 -29.538174 -1.483835 -4.840917 64.505290 -0.531226 -10.573149 21.454553 0.003092 -0.000000 153.385476 -0.888112 -176.342753 -28.308738 1.443440 0.018874 83.829528 1.199317 6.058008 21.454560 -0.003102 -0.000017 9.255862 -0.315336 0.578101 8.495693 -0.672260 1.131524 8.177652 -0.665286 1.135568 9.332122 -4.666619 -1.636923 -22.798618 10.904493 -6.786843 -156.566896 -77.335841 -25.412217 17.189508 53.950151 7.765772 -99.380577 -2.384758 2.888823 -1.878488 -9.889040 53.397128 -151.328278 75.825529 30.751830 27.509490 -40.736044 -9.755888 -103.342709 -0.638144 -2.899367 -7.709268 9.933309 -28.013749 
204.618607 96.062897 -263.832489 93.826514 1.563928 -43.368272 151.179175 -4.393400 178.562674 -30.192062 -2.009797 -4.883226 63.590769 -1.469067 -12.792122 21.454548 0.003092 -0.000001 151.871606 -1.917105 -179.653277 -29.612425 1.762279 0.004016 86.855984 1.138013 6.607291 21.454557 -0.003110 -0.000017 10.013776 -0.409361 0.418570 10.012019 -0.853450 0.800147 9.693906 -0.848465 0.805300 6.815352 -4.710808 -1.293155 -21.758153 11.362410 -6.604200 -158.531245 -78.732957 -23.386163 26.429306 54.284281 14.255491 -98.809089 -2.438623 2.867212 -2.374554 -10.844597 51.251130 -152.137191 75.293178 29.940080 31.702419 -41.017782 -12.719836 -101.666287 -0.190420 -2.855895 -7.314840 9.705542 -34.319546 
199.936096 90.648483 -267.427887 92.935590 0.539601 -42.511371 148.190953 -4.326401 178.212449 -37.733465 -1.766959 -5.440798 66.334538 -0.206295 -11.350703 21.454550 0.003092 0.000000 150.159100 -3.034604 178.819994 -35.491230 1.024266 -0.598667 89.447495 1.559737 7.410467 21.454560 -0.003104 -0.000016 10.707250 -0.396933 0.082386 11.401500 -0.800099 0.125230 11.083343 -0.799182 0.130062 2.930835 -4.552332 -0.298620 -19.828183 12.009138 -5.737004 -161.425155 -80.420348 -20.421017 36.094001 55.593645 22.376823 -98.159422 -2.428773 2.837665 -4.094935 -11.701116 49.474714 -156.126814 73.347496 25.902278 34.482094 -40.612206 -14.712955 -102.430708 -0.242580 -2.886322 -8.616160 7.877412 -40.003424 
195.150604 84.662712 -271.111694 91.560107 -1.324669 -41.605561 145.617939 -4.574606 175.392960 -53.824636 -1.732525 -6.004115 81.422542 4.001919 -1.006555 21.454555 0.003095 0.000000 147.358777 -4.156010 -179.854208 -48.676890 0.706023 -0.223002 85.794266 0.065406 -0.302255 21.454562 -0.003114 -0.000019 11.352976 -0.145281 -0.234450 12.693673 -0.263973 -0.483429 12.375580 -0.266755 -0.481820 -1.104300 -5.166935 0.273295 -17.045990 10.712131 -4.615923 -165.230390 -79.654363 -16.563779 37.756941 56.525741 25.852660 -95.504930 -2.724745 2.740300 -3.423239 -10.593052 47.149837 -154.900699 71.044267 27.212625 32.942825 -43.089246 -14.639252 -104.688010 -0.514186 -2.967680 -9.597113 3.509998 -43.233694 
190.175003 78.557968 -274.746613 88.863124 -1.406260 -40.928614 144.268635 -2.798714 172.778118 -69.713794 0.626823 -5.969231 94.176329 3.758072 -2.129669 21.454555 0.003093 0.000000 143.412198 -3.344608 177.861445 -68.725616 1.647973 1.255479 96.090284 -1.039581 -1.538361 21.454557 -0.003104 -0.000017 11.509791 -0.404774 -0.749122 13.011871 -0.722664 -1.539053 12.693869 -0.731809 -1.534648 -0.733759 -3.908579 1.122832 -18.880871 9.276030 -3.134407 -164.259315 -79.269031 -17.553608 31.758495 59.199968 25.885314 -89.372083 -4.196864 2.570842 -4.418974 -11.353252 46.926873 -155.925583 69.602947 26.189035 27.646243 -48.570110 -14.995284 -103.976414 -0.242626 -2.955020 -12.219175 3.847114 -45.806910 
185.981003 74.480026 -278.085785 89.392997 -2.248968 -40.340436 143.423249 -3.766010 173.719988 -80.071564 0.680729 -5.807346 101.574209 3.619796 -3.727743 21.454555 0.003095 -0.000001 142.877845 -5.131102 -178.947883 -78.536227 -1.714226 2.149996 103.547601 -1.373427 -0.010595 21.454560 -0.003104 -0.000017 11.258753 -0.155583 -0.843518 12.506292 -0.219017 -1.698878 12.188352 -0.229143 -1.697510 -1.967695 -2.892135 0.709629 -18.140315 8.076049 -2.883124 -170.230799 -77.415331 -11.478576 14.181320 60.220009 18.416876 -85.048156 -7.800604 2.632136 -4.331181 -10.387078 48.558321 -162.975799 68.694566 18.923502 19.915862 -54.970127 -12.187264 -101.487008 0.711469 -2.910734 -12.992691 4.764732 -45.890487 
